<?xml version="1.0" encoding="UTF-8" standalone="no"?>
<svg
   width="800"
   height="800"
   viewBox="0 0 36 36"
   aria-hidden="true"
   role="img"
   class="iconify iconify--twemoji"
   preserveAspectRatio="xMidYMid"
   version="1.1"
   id="svg5"
   xml:space="preserve"
   xmlns="http://www.w3.org/2000/svg"
   xmlns:svg="http://www.w3.org/2000/svg"><defs
     id="defs5" /><path
     fill="#ea596e"
     d="m 29.896,26.667 c 0.003,0.283 -0.07,0.653 -0.146,0.958 -0.531,2.145 -2.889,4.552 -6.208,4.333 -3.008,-0.198 -5.458,-1.642 -5.458,-3.667 0,-2.025 2.444,-3.667 5.458,-3.667 3.014,0 6.335,0.018 6.354,2.043 z"
     id="path1" /><path
     fill="#dd2e44"
     d="m 23.542,24.964 c -1.619,0 -5.314,0.448 -6.162,0.448 -1.498,0 -2.713,0.94 -2.713,2.1 0,0.558 0.286,1.062 0.744,1.438 0,0 1.006,1.009 2.818,0.525 0.793,-0.212 2.083,-1.786 4.354,-2.036 1.131,-0.125 3.25,0.75 6.974,0.771 0.16,-0.344 0.193,-0.583 0.193,-0.583 0,-2.027 -3.194,-2.663 -6.208,-2.663 z"
     id="path2" /><path
     fill="#f4abba"
     d="m 29.75,27.625 c 0,0 2.184,-0.443 3.542,-2.229 1.583,-2.083 1.375,-4.312 1.375,-4.312 1.604,-3 -0.5,-5.813 -0.5,-5.813 C 33.958,12.104 32,10.792 32,10.792 30.729,7.771 27.917,6.959 27.917,6.959 c -2.208,-2.583 -6.125,-2.5 -6.125,-2.5 0,0 -3.67,-1.345 -8.708,0.167 C 12.251,4.876 9.459,5.459 7.417,6.709 0.981,10.649 0.494,16.793 0.584,17.792 1.083,23.375 5,24.375 7.5,24.958 c 0.583,1.583 2.729,4.5 6.583,3.417 4.75,-0.833 6.75,-2.25 7.917,-2.25 1.167,0 4.417,1.25 7.75,1.5 z"
     id="path3" /><g
     fill="#ea596e"
     id="g5"><path
       d="m 17.737,18.648 c 2.328,-1.255 3.59,-1.138 4.704,-1.037 0.354,0.032 0.689,0.057 1.028,0.055 1.984,-0.045 3.591,-0.881 4.302,-1.69 a 0.501,0.501 0 0 0 -0.752,-0.661 c -0.548,0.624 -1.899,1.313 -3.573,1.351 -0.3,0.009 -0.601,-0.021 -0.913,-0.05 -1.195,-0.111 -2.679,-0.247 -5.271,1.152 -0.665,0.359 -1.577,0.492 -2.565,0.592 -2.197,-3.171 -0.875,-5.933 -0.497,-6.591 0.037,0.002 0.073,0.014 0.111,0.014 0.4,0 0.802,-0.098 1.166,-0.304 a 0.5,0.5 0 0 0 -0.492,-0.87 1.426,1.426 0 0 1 -1.88,-0.467 0.5,0.5 0 0 0 -0.841,0.539 c 0.237,0.371 0.571,0.65 0.948,0.837 -0.521,1.058 -1.51,3.84 0.372,6.951 -1.324,0.13 -2.65,0.317 -3.688,0.986 A 7.182,7.182 0 0 0 8.018,21.246 C 7.389,21.138 5.086,20.571 4.684,18.015 c 0.25,-0.194 0.452,-0.45 0.577,-0.766 a 0.50008099,0.50008099 0 1 0 -0.93,-0.368 0.772,0.772 0 0 1 -0.454,0.461 0.777,0.777 0 0 1 -0.643,-0.07 0.500018,0.500018 0 0 0 -0.486,0.874 c 0.284,0.158 0.588,0.238 0.89,0.238 0.037,0 0.072,-0.017 0.109,-0.019 0.476,2.413 2.383,3.473 3.732,3.794 a 3.69,3.69 0 0 0 -0.331,1.192 0.5,0.5 0 0 0 0.454,0.542 l 0.045,0.002 a 0.5,0.5 0 0 0 0.498,-0.456 c 0.108,-1.213 1.265,-2.48 2.293,-3.145 0.964,-0.621 2.375,-0.752 3.741,-0.879 1.325,-0.121 2.577,-0.237 3.558,-0.767 z m 12.866,-1.504 a 0.5003209,0.5003209 0 0 0 0.878,0.48 C 31.5,17.59 33.323,14.175 29.91,11.88 a 0.500066,0.500066 0 0 0 -0.558,0.83 c 2.644,1.778 1.309,4.326 1.251,4.434 z M 9.876,9.07 A 0.497,0.497 0 0 0 10.282,8.862 C 11.732,6.845 13.74,7.535 13.825,7.567 A 0.5,0.5 0 0 0 14.17,6.629 C 13.21,6.273 10.993,6.161 9.47,8.279 A 0.5,0.5 0 0 0 9.876,9.07 Z M 22.948,7.182 c 2.225,-0.181 3.237,1.432 3.283,1.508 A 0.50045429,0.50045429 0 0 0 27.094,8.183 C 27.04,8.092 25.754,5.965 22.87,6.185 a 0.50002325,0.50002325 0 0 0 0.078,0.997 z m 9.15,14.611 c -0.246,-0.014 -0.517,0.181 -0.539,0.457 -0.002,0.018 -0.161,1.719 -1.91,2.294 a 0.499,0.499 0 0 0 0.157,0.975 0.499,0.499 0 0 0 0.156,-0.025 c 2.372,-0.778 2.586,-3.064 2.594,-3.161 a 0.502,0.502 0 0 0 -0.458,-0.54 z"
       id="path4" /><path
       d="m 7.347,16.934 a 0.5,0.5 0 1 0 0.965,0.26 1.423,1.423 0 0 1 1.652,-1.014 0.50011649,0.50011649 0 0 0 0.205,-0.979 2.354,2.354 0 0 0 -1.248,0.086 C 7.755,13.293 7.982,11.327 7.985,11.306 A 0.502,0.502 0 0 0 7.556,10.744 0.503,0.503 0 0 0 6.994,11.171 c -0.013,0.097 -0.28,2.316 1.063,4.614 a 2.376,2.376 0 0 0 -0.71,1.149 z m 11.179,-2.47 a 1.069,1.069 0 0 1 1.455,0.015 0.502,0.502 0 0 0 0.707,-0.011 0.5,0.5 0 0 0 -0.01,-0.707 2.004,2.004 0 0 0 -0.797,-0.465 c 0.296,-1.016 0.179,-1.467 -0.096,-2.312 a 20.6,20.6 0 0 1 -0.157,-0.498 l -0.03,-0.1 C 19.234,9.178 18.993,8.381 19.685,7.256 A 0.50011999,0.50011999 0 0 0 18.833,6.732 c -0.928,1.508 -0.587,2.637 -0.192,3.944 l 0.03,0.1 c 0.059,0.194 0.113,0.364 0.163,0.517 0.247,0.761 0.322,1.016 0.02,1.936 a 2.022,2.022 0 0 0 -1.01,0.504 0.5,0.5 0 0 0 0.682,0.731 z m 6.365,-2.985 A 2,2 0 0 0 25.75,11.288 0.50012523,0.50012523 0 0 0 25.324,10.383 1.072,1.072 0 0 1 23.94,9.926 0.5,0.5 0 1 0 23.059,10.398 c 0.18,0.336 0.448,0.601 0.76,0.785 -0.537,1.305 -0.232,2.691 0.017,3.426 a 0.5,0.5 0 1 0 0.947,-0.319 c -0.168,-0.498 -0.494,-1.756 -0.002,-2.826 0.038,0.002 0.073,0.015 0.11,0.015 z m 4.797,9.429 a 0.497,0.497 0 0 0 -0.531,-0.467 1.825,1.825 0 0 1 -1.947,-1.703 0.509,0.509 0 0 0 -0.533,-0.465 0.502,0.502 0 0 0 -0.465,0.533 c 0.041,0.59 0.266,1.122 0.608,1.555 -0.804,0.946 -1.857,1.215 -2.444,1.284 -0.519,0.062 -0.973,0.009 -1.498,-0.053 -0.481,-0.055 -1.025,-0.118 -1.698,-0.098 l -0.005,0.001 c -0.02,-0.286 -0.088,-0.703 -0.305,-1.05 a 0.501,0.501 0 0 0 -0.847,0.531 c 0.134,0.215 0.159,0.558 0.159,0.725 -0.504,0.181 -0.94,0.447 -1.334,0.704 -0.704,0.458 -1.259,0.82 -2.094,0.632 -0.756,-0.173 -1.513,-0.208 -2.155,-0.118 -0.1,-0.251 -0.258,-0.551 -0.502,-0.782 a 0.50012448,0.50012448 0 0 0 -0.687,0.727 c 0.086,0.081 0.154,0.199 0.209,0.317 -1.103,0.454 -1.656,1.213 -1.682,1.25 a 0.499,0.499 0 0 0 0.407,0.788 0.502,0.502 0 0 0 0.406,-0.205 c 0.005,-0.008 0.554,-0.743 1.637,-1.04 0.56,-0.154 1.363,-0.141 2.146,0.037 0.219,0.05 0.422,0.067 0.619,0.07 0.093,0.218 0.129,0.477 0.134,0.573 a 0.501,0.501 0 0 0 0.499,0.472 l 0.027,-0.001 a 0.5,0.5 0 0 0 0.473,-0.523 3.023,3.023 0 0 0 -0.13,-0.686 c 0.461,-0.167 0.862,-0.428 1.239,-0.673 0.572,-0.373 1.113,-0.726 1.82,-0.749 0.592,-0.021 1.08,0.036 1.551,0.091 0.474,0.055 0.94,0.091 1.454,0.061 0.091,0.253 0.084,0.591 0.07,0.704 a 0.503,0.503 0 0 0 0.497,0.563 0.5,0.5 0 0 0 0.495,-0.435 2.883,2.883 0 0 0 -0.059,-0.981 4.67,4.67 0 0 0 2.345,-1.471 2.807,2.807 0 0 0 1.656,0.413 0.499,0.499 0 0 0 0.465,-0.531 z"
       id="path5" /></g><g
     id="g31"
     transform="matrix(1.2546494,0,0,1.2546494,13.694956,-21.555373)"><g
       style="fill:#000000;fill-opacity:1"
       id="g6"
       transform="matrix(0.28772615,0,0,0.28772615,-5.8406019,20.932216)"><g
         id="Layer_1"
         style="fill:#000000;fill-opacity:1" /><g
         id="Layer_2"
         style="fill:#000000;fill-opacity:1" /><g
         id="Layer_4"
         style="fill:#000000;fill-opacity:1" /><g
         id="Layer_5"
         style="fill:#000000;fill-opacity:1">

<g
   id="g1"
   style="fill:#000000;fill-opacity:1">

<path
   d="M 41.02,51 C 41.014,51 41.006,51 41,51 H 23 c -0.306,0 -0.595,-0.14 -0.784,-0.38 -0.19,-0.24 -0.26,-0.553 -0.188,-0.851 L 26.864,29.391 C 24.463,27.718 23,24.951 23,22 c 0,-4.962 4.037,-9 9,-9 4.963,0 9,4.038 9,9 0,2.951 -1.463,5.718 -3.863,7.391 l 4.792,20.191 c 0.059,0.127 0.091,0.269 0.091,0.418 0,0.552 -0.448,1 -1,1 z M 24.265,49 H 39.736 L 35.028,29.161 C 34.925,28.731 35.118,28.286 35.5,28.064 37.658,26.815 39,24.492 39,22 c 0,-3.86 -3.141,-7 -7,-7 -3.859,0 -7,3.14 -7,7 0,2.492 1.342,4.815 3.501,6.064 0.382,0.221 0.574,0.667 0.472,1.097 z"
   id="path1-0"
   style="fill:#000000;fill-opacity:1" />

</g>

</g></g><path
       style="fill:#000000;fill-opacity:1;stroke:#000000;stroke-width:0.184245;stroke-linejoin:bevel"
       d="m 1.0718632,35.359526 c 0,-0.01081 0.3150584,-1.347281 0.7001297,-2.969941 0.3850714,-1.62266 0.7001298,-2.98877 0.7001298,-3.035798 0,-0.145832 -0.038822,-0.199451 -0.2421027,-0.334381 -0.411319,-0.273018 -0.7589631,-0.752086 -0.8821848,-1.215688 -0.074286,-0.279489 -0.074286,-0.783127 0,-1.062616 0.1936387,-0.728534 0.858833,-1.359224 1.5990757,-1.516131 0.3104798,-0.06581 0.5108997,-0.06521 0.833349,0.0025 0.9750174,0.204707 1.6766267,1.075461 1.6766267,2.080828 0,0.633473 -0.3972473,1.345672 -0.9580725,1.717667 -0.3136124,0.208019 -0.3489334,-0.05471 0.4417625,3.286003 0.3872881,1.636304 0.7111196,2.995826 0.7196251,3.02116 0.012263,0.03652 -0.4612326,0.04606 -2.2864366,0.04606 -1.266046,0 -2.3019019,-0.0088 -2.3019019,-0.01965 z"
       id="path31" /></g></svg>
